HIERARCHY
ROOT Pelvis
{
	OFFSET -0.217368 -24.078917 2.858379
	CHANNELS 6 Xposition Yposition Zposition Zrotation Yrotation Xrotation 
	JOINT Left_hip
	{
		OFFSET 5.858135 -8.228005 -1.766408
		CHANNELS 3 Zrotation Yrotation Xrotation
		JOINT Left_knee
		{
			OFFSET 4.345143 -38.646942 0.803700
			CHANNELS 3 Zrotation Yrotation Xrotation
			JOINT Left_ankle
			{
				OFFSET -1.479033 -42.687447 -3.742800
				CHANNELS 3 Zrotation Yrotation Xrotation
				JOINT Left_foot
				{
					OFFSET 4.105436 -6.028605 12.204244
					CHANNELS 3 Zrotation Yrotation Xrotation
					End Site
					{
						OFFSET 0.000000 0.000000 0.000000
					}
				}
			}
		}
	}
	JOINT Right_hip
	{
		OFFSET -6.030973 -9.051328 -1.354253
		CHANNELS 3 Zrotation Yrotation Xrotation
		JOINT Right_knee
		{
			OFFSET -4.325663 -38.368790 -0.484304
			CHANNELS 3 Zrotation Yrotation Xrotation
			JOINT Right_ankle
			{
				OFFSET 1.905555 -42.004566 -3.456167
				CHANNELS 3 Zrotation Yrotation Xrotation
				JOINT Right_foot
				{
					OFFSET -3.483987 -6.210554 13.032330
					CHANNELS 3 Zrotation Yrotation Xrotation
					End Site
					{
						OFFSET 0.000000 0.000000 0.000000
					}
				}
			}
		}
	}
	JOINT Spine1
	{
		OFFSET 0.443945 12.440353 -3.838522
		CHANNELS 3 Zrotation Yrotation Xrotation
		JOINT Spine2
		{
			OFFSET 0.448844 13.795640 2.682033
			CHANNELS 3 Zrotation Yrotation Xrotation
			JOINT Spine3
			{
				OFFSET -0.226460 5.603239 0.285504
				CHANNELS 3 Zrotation Yrotation Xrotation
				JOINT Neck
				{
					OFFSET -1.339018 21.163553 -3.346758
					CHANNELS 3 Zrotation Yrotation Xrotation
					JOINT Head
					{
						OFFSET 1.011321 8.893734 5.040987
						CHANNELS 3 Zrotation Yrotation Xrotation
						End Site
						{
							OFFSET 0.000000 0.000000 0.000000
						}
					}
				}
				JOINT Left_collar
				{
					OFFSET 7.170247 11.399971 -1.889817
					CHANNELS 3 Zrotation Yrotation Xrotation
					JOINT Left_shoulder
					{
						OFFSET 12.292140 4.520507 -1.904600
						CHANNELS 3 Zrotation Yrotation Xrotation
						JOINT Left_elbow
						{
							OFFSET 25.533188 -1.564902 -2.294648
							CHANNELS 3 Zrotation Yrotation Xrotation
							JOINT Left_wrist
							{
								OFFSET 26.570929 1.269810 -0.737473
								CHANNELS 3 Zrotation Yrotation Xrotation
								JOINT Left_palm
								{
									OFFSET 8.669054 -1.063602 -1.559429
									CHANNELS 3 Zrotation Yrotation Xrotation
									End Site
									{
										OFFSET 0.000000 0.000000 0.000000
									}
								}
							}
						}
					}
				}
				JOINT Right_collar
				{
					OFFSET -8.295364 11.247234 -2.370738
					CHANNELS 3 Zrotation Yrotation Xrotation
					JOINT Right_shoulder
					{
						OFFSET -11.322830 4.685326 -0.847207
						CHANNELS 3 Zrotation Yrotation Xrotation
						JOINT Right_elbow
						{
							OFFSET -26.012751 -1.436928 -3.126872
							CHANNELS 3 Zrotation Yrotation Xrotation
							JOINT Right_wrist
							{
								OFFSET -26.910841 0.679372 -0.602677
								CHANNELS 3 Zrotation Yrotation Xrotation
								JOINT Right_palm
								{
									OFFSET -8.875370 -0.865157 -1.010708
									CHANNELS 3 Zrotation Yrotation Xrotation
									End Site
									{
										OFFSET 0.000000 0.000000 0.000000
									}
								}
							}
						}
					}
				}
			}
		}
	}
}
MOTION
Frames: 9
Frame Time: 0.016667
25.476557 67.270020 -21.036444 1.914767 -30.456329 1.890258 12.343536 -0.358850 12.706193 -12.835227 2.307991 11.166154 13.480314 25.088520 16.701434 0.000000 0.000000 0.000000 -19.988298 -1.746883 -29.028765 9.696202 -1.995219 20.419626 -6.953445 -18.391258 24.454984 0.000000 0.000000 0.000000 7.759176 -0.695888 5.805982 -0.711325 0.912070 -30.407171 -0.009930 2.804434 28.937219 22.162304 -13.563353 -11.588607 0.000000 0.000000 0.000000 18.099388 -3.873325 2.348617 10.109553 -32.780073 -3.699534 83.466977 19.057907 16.303026 0.000000 0.000000 0.000000 0.000000 0.000000 0.000000 17.834552 1.413858 -1.060044 22.397995 27.551407 2.198212 -37.507879 73.871321 -25.494325 0.000000 0.000000 0.000000 0.000000 0.000000 0.000000 
25.265324 67.104698 -20.904793 2.510077 -32.841593 4.330486 10.182104 -0.092375 12.595615 -12.107585 1.857432 7.184946 14.617086 26.402472 18.422616 0.000000 0.000000 0.000000 -18.973430 -1.686944 -31.590078 7.940110 -1.420539 18.515364 -6.639685 -17.929404 23.882781 0.000000 0.000000 0.000000 9.086461 -0.714336 5.303981 0.479895 0.713339 -31.140726 -2.692146 -0.400963 27.826889 17.696331 -10.767367 -10.977239 0.000000 0.000000 0.000000 21.335642 -7.467209 3.035783 13.950672 -32.101377 -4.330089 74.366705 21.879063 15.865929 0.000000 0.000000 0.000000 0.000000 0.000000 0.000000 17.551724 4.299878 0.474644 25.169977 32.605251 3.612932 -35.314939 69.573040 -21.957159 0.000000 0.000000 0.000000 0.000000 0.000000 0.000000 
25.059889 66.751518 -20.848934 3.186553 -35.205292 5.158955 8.714302 0.094130 13.039211 -12.177148 1.763655 5.766092 14.203352 25.996021 17.200006 0.000000 0.000000 0.000000 -18.382244 -1.656861 -33.481644 7.626711 -1.308586 17.625610 -6.560480 -17.798024 23.449223 0.000000 0.000000 0.000000 9.323318 -0.807205 5.952468 2.701130 0.345676 -31.703839 -3.947701 -2.327918 27.283018 16.002644 -9.811687 -10.333776 0.000000 0.000000 0.000000 25.143091 -11.782945 3.592052 15.064330 -31.471410 -4.414505 62.484797 22.350507 12.899405 0.000000 0.000000 0.000000 0.000000 0.000000 0.000000 17.933031 6.674155 1.710334 26.004912 36.756242 4.634537 -34.518266 66.187910 -20.031051 0.000000 0.000000 0.000000 0.000000 0.000000 0.000000 
24.782867 66.310379 -20.805559 3.617017 -36.998878 7.513027 7.732726 0.188221 11.791256 -11.478549 1.556533 4.382728 15.049808 27.020369 17.862413 0.000000 0.000000 0.000000 -17.989094 -1.639272 -34.955269 7.058614 -1.090013 14.783053 -6.464439 -17.673241 23.703497 0.000000 0.000000 0.000000 11.019848 -0.869951 5.655630 3.208409 0.256490 -31.674989 -5.207076 -3.997665 26.496781 13.849424 -8.556507 -9.554929 0.000000 0.000000 0.000000 27.504066 -17.021590 4.020768 15.745977 -30.827944 -4.404611 51.660854 18.770899 8.578567 0.000000 0.000000 0.000000 0.000000 0.000000 0.000000 17.392363 8.982236 2.946080 27.757851 41.304512 6.129089 -35.678538 62.830078 -19.457342 0.000000 0.000000 0.000000 0.000000 0.000000 0.000000 
24.358713 65.812416 -20.796673 3.744827 -35.813509 8.224349 8.406035 0.090402 10.672462 -10.829312 1.507102 5.144376 14.695932 26.845822 15.420902 0.000000 0.000000 0.000000 -18.917288 -1.908255 -34.942282 8.069119 -1.310219 14.132007 -8.102312 -19.982831 24.220404 0.000000 0.000000 0.000000 11.108156 -0.941073 6.130217 4.508046 -0.072592 -30.063306 -5.851266 -6.989227 24.785110 12.135684 -7.826325 -7.654259 0.000000 0.000000 0.000000 30.647682 -21.912128 4.124810 17.167027 -32.952188 -5.150828 39.720906 17.024074 5.691803 0.000000 0.000000 0.000000 0.000000 0.000000 0.000000 16.348378 10.317816 3.647008 27.821586 45.292354 7.089156 -40.834594 58.217918 -20.656393 0.000000 0.000000 0.000000 0.000000 0.000000 0.000000 
23.803968 65.360489 -20.720432 4.426071 -35.105988 8.967153 9.067392 0.007007 9.547705 -11.264656 1.613255 5.722151 16.433398 29.051852 16.134194 0.000000 0.000000 0.000000 -19.844801 -2.220456 -35.472554 8.907383 -1.465064 13.128805 -9.635101 -22.055944 25.229761 0.000000 0.000000 0.000000 12.496155 -1.131433 6.809890 4.641062 -0.136361 -29.475276 -6.952880 -8.620499 24.535154 11.272606 -7.290594 -7.338857 0.000000 0.000000 0.000000 32.683371 -24.882858 4.035466 17.337154 -34.244358 -5.488305 33.566539 10.330419 2.883160 0.000000 0.000000 0.000000 0.000000 0.000000 0.000000 14.905805 12.522660 4.751146 27.593882 46.900826 7.392383 -46.581447 55.886240 -22.882510 0.000000 0.000000 0.000000 0.000000 0.000000 0.000000 
23.183561 64.921822 -20.488327 4.910536 -36.272416 9.444301 8.760418 0.044739 10.114235 -10.858498 1.514260 5.186074 16.729483 29.427521 16.200071 0.000000 0.000000 0.000000 -20.416361 -2.591456 -37.819456 10.331986 -1.854170 14.427347 -10.524507 -23.239411 25.311590 0.000000 0.000000 0.000000 13.849008 -1.468696 8.296354 4.765003 -0.240397 -28.284724 -6.530446 -8.911363 23.838819 11.506183 -7.137176 -8.778997 0.000000 0.000000 0.000000 31.656530 -25.755436 4.221907 17.781961 -35.928809 -5.992020 31.826098 2.945468 0.881665 0.000000 0.000000 0.000000 0.000000 0.000000 0.000000 13.933915 13.428689 5.171282 26.270053 47.910639 7.126827 -51.013630 55.302757 -25.122655 0.000000 0.000000 0.000000 0.000000 0.000000 0.000000 
22.461134 64.556969 -20.102541 5.846287 -37.593049 10.478878 8.114434 0.075589 8.453054 -11.486990 1.627257 5.402300 17.632786 30.908615 14.546913 0.000000 0.000000 0.000000 -20.953059 -3.000837 -40.399341 10.325969 -1.944551 16.128612 -9.034082 -21.280313 23.631898 0.000000 0.000000 0.000000 15.074790 -1.643484 8.713768 4.699313 -0.317514 -26.932835 -7.524215 -8.991999 22.827265 11.406150 -6.866814 -9.711006 0.000000 0.000000 0.000000 29.789658 -27.612323 4.625233 16.416400 -38.131698 -6.179047 32.004034 -2.787347 -0.535104 0.000000 0.000000 0.000000 0.000000 0.000000 0.000000 13.052082 14.443851 5.631664 25.099957 47.323296 6.552148 -54.254354 54.778718 -26.705025 0.000000 0.000000 0.000000 0.000000 0.000000 0.000000 
21.670773 64.099838 -19.582752 6.647612 -40.491856 10.977214 7.508439 0.124531 8.332099 -10.701470 1.537250 5.962594 16.002585 28.547941 15.726011 0.000000 0.000000 0.000000 -20.490680 -3.106005 -43.358849 10.165550 -2.018158 18.283338 -7.466774 -19.025077 20.690300 0.000000 0.000000 0.000000 16.663756 -1.943700 9.566830 3.563969 -0.178508 -25.058971 -8.341845 -8.572632 21.783150 12.321205 -7.123056 -11.315691 0.000000 0.000000 0.000000 26.424547 -29.774765 5.400673 14.166651 -39.417172 -5.870209 33.044994 -9.621982 -2.324702 0.000000 0.000000 0.000000 0.000000 0.000000 0.000000 13.926542 15.164142 6.037329 22.478102 46.118116 5.347877 -56.549654 56.861245 -29.327548 0.000000 0.000000 0.000000 0.000000 0.000000 0.000000 
